<?xml version="1.0" encoding="UTF-8"?>
<svg xmlns="http://www.w3.org/2000/svg" xmlns:xlink="http://www.w3.org/1999/xlink" width="24pt" height="24pt" viewBox="0 0 24 24" version="1.1">
<g id="surface1">
<path style=" stroke:none;fill-rule:nonzero;fill:#72CAAF;fill-opacity:1;" d="M 22.125 10.875 L 13.125 10.875 L 13.125 1.875 L 10.875 1.875 L 10.875 10.875 L 1.875 10.875 L 1.875 13.125 L 10.875 13.125 L 10.875 22.125 L 13.125 22.125 L 13.125 13.125 L 22.125 13.125 Z "/>
<path style=" stroke:none;fill-rule:nonzero;fill:#97E0BB;fill-opacity:1;" d="M 20.625 12 L 3.375 12 C 2.753906 12 2.25 11.496094 2.25 10.875 L 21.75 10.875 C 21.75 11.496094 21.246094 12 20.625 12 Z "/>
<path style=" stroke:none;fill-rule:nonzero;fill:#97E0BB;fill-opacity:1;" d="M 11.25 2.25 L 13.125 2.25 L 13.125 10.875 L 11.25 10.875 Z "/>
<path style=" stroke:none;fill-rule:nonzero;fill:#8D6C9F;fill-opacity:1;" d="M 21.75 10.5 L 13.5 10.5 L 13.5 2.25 C 13.5 1.835938 13.164063 1.5 12.75 1.5 L 11.25 1.5 C 10.835938 1.5 10.5 1.835938 10.5 2.25 L 10.5 10.5 L 2.25 10.5 C 1.835938 10.5 1.5 10.835938 1.5 11.25 L 1.5 12.75 C 1.5 13.164063 1.835938 13.5 2.25 13.5 L 10.5 13.5 L 10.5 21.75 C 10.5 22.164063 10.835938 22.5 11.25 22.5 L 12.75 22.5 C 13.164063 22.5 13.5 22.164063 13.5 21.75 L 13.5 13.5 L 21.75 13.5 C 22.164063 13.5 22.5 13.164063 22.5 12.75 L 22.5 11.25 C 22.5 10.835938 22.164063 10.5 21.75 10.5 Z M 21.75 12.75 L 12.75 12.75 L 12.75 21.75 L 11.25 21.75 L 11.25 12.75 L 2.25 12.75 L 2.25 11.25 L 11.25 11.25 L 11.25 2.25 L 12.75 2.25 L 12.75 11.25 L 21.75 11.25 Z "/>
<path style=" stroke:none;fill-rule:nonzero;fill:#8D6C9F;fill-opacity:1;" d="M 14.625 14.25 C 14.417969 14.25 14.25 14.417969 14.25 14.625 L 14.25 15.375 C 14.25 15.582031 14.417969 15.75 14.625 15.75 C 14.832031 15.75 15 15.582031 15 15.375 L 15 14.625 C 15 14.417969 14.832031 14.25 14.625 14.25 Z "/>
<path style=" stroke:none;fill-rule:nonzero;fill:#8D6C9F;fill-opacity:1;" d="M 16.5 14.25 C 16.292969 14.25 16.125 14.417969 16.125 14.625 L 16.125 15.375 C 16.125 15.582031 16.292969 15.75 16.5 15.75 C 16.707031 15.75 16.875 15.582031 16.875 15.375 L 16.875 14.625 C 16.875 14.417969 16.707031 14.25 16.5 14.25 Z "/>
<path style=" stroke:none;fill-rule:nonzero;fill:#8D6C9F;fill-opacity:1;" d="M 18.375 14.25 C 18.167969 14.25 18 14.417969 18 14.625 L 18 15.375 C 18 15.582031 18.167969 15.75 18.375 15.75 C 18.582031 15.75 18.75 15.582031 18.75 15.375 L 18.75 14.625 C 18.75 14.417969 18.582031 14.25 18.375 14.25 Z "/>
<path style=" stroke:none;fill-rule:nonzero;fill:#8D6C9F;fill-opacity:1;" d="M 20.25 14.25 C 20.042969 14.25 19.875 14.417969 19.875 14.625 L 19.875 15.375 C 19.875 15.582031 20.042969 15.75 20.25 15.75 C 20.457031 15.75 20.625 15.582031 20.625 15.375 L 20.625 14.625 C 20.625 14.417969 20.457031 14.25 20.25 14.25 Z "/>
<path style=" stroke:none;fill-rule:nonzero;fill:#8D6C9F;fill-opacity:1;" d="M 22.125 14.25 C 21.917969 14.25 21.75 14.417969 21.75 14.625 L 21.75 15.375 C 21.75 15.582031 21.917969 15.75 22.125 15.75 C 22.332031 15.75 22.5 15.582031 22.5 15.375 L 22.5 14.625 C 22.5 14.417969 22.332031 14.25 22.125 14.25 Z "/>
<path style=" stroke:none;fill-rule:nonzero;fill:#8D6C9F;fill-opacity:1;" d="M 3.75 9.75 C 3.957031 9.75 4.125 9.582031 4.125 9.375 L 4.125 8.625 C 4.125 8.417969 3.957031 8.25 3.75 8.25 C 3.542969 8.25 3.375 8.417969 3.375 8.625 L 3.375 9.375 C 3.375 9.582031 3.542969 9.75 3.75 9.75 Z "/>
<path style=" stroke:none;fill-rule:nonzero;fill:#8D6C9F;fill-opacity:1;" d="M 1.875 9.75 C 2.082031 9.75 2.25 9.582031 2.25 9.375 L 2.25 8.625 C 2.25 8.417969 2.082031 8.25 1.875 8.25 C 1.667969 8.25 1.5 8.417969 1.5 8.625 L 1.5 9.375 C 1.5 9.582031 1.667969 9.75 1.875 9.75 Z "/>
<path style=" stroke:none;fill-rule:nonzero;fill:#8D6C9F;fill-opacity:1;" d="M 5.625 9.75 C 5.832031 9.75 6 9.582031 6 9.375 L 6 8.625 C 6 8.417969 5.832031 8.25 5.625 8.25 C 5.417969 8.25 5.25 8.417969 5.25 8.625 L 5.25 9.375 C 5.25 9.582031 5.417969 9.75 5.625 9.75 Z "/>
<path style=" stroke:none;fill-rule:nonzero;fill:#8D6C9F;fill-opacity:1;" d="M 7.5 9.75 C 7.707031 9.75 7.875 9.582031 7.875 9.375 L 7.875 8.625 C 7.875 8.417969 7.707031 8.25 7.5 8.25 C 7.292969 8.25 7.125 8.417969 7.125 8.625 L 7.125 9.375 C 7.125 9.582031 7.292969 9.75 7.5 9.75 Z "/>
<path style=" stroke:none;fill-rule:nonzero;fill:#8D6C9F;fill-opacity:1;" d="M 9.375 9.75 C 9.582031 9.75 9.75 9.582031 9.75 9.375 L 9.75 8.625 C 9.75 8.417969 9.582031 8.25 9.375 8.25 C 9.167969 8.25 9 8.417969 9 8.625 L 9 9.375 C 9 9.582031 9.167969 9.75 9.375 9.75 Z "/>
</g>
</svg>
