<?xml version="1.0" encoding="UTF-8"?>
<svg xmlns="http://www.w3.org/2000/svg" xmlns:xlink="http://www.w3.org/1999/xlink" width="24pt" height="24pt" viewBox="0 0 24 24" version="1.1">
<g id="surface1">
<path style=" stroke:none;fill-rule:nonzero;fill:#FAEFDE;fill-opacity:1;" d="M 20.625 20.625 L 1.5 20.625 C 0.878906 20.625 0.375 20.121094 0.375 19.5 L 0.375 4.5 C 0.375 3.878906 0.878906 3.375 1.5 3.375 L 7.5 3.375 L 9.75 5.625 L 19.5 5.625 C 20.121094 5.625 20.625 6.128906 20.625 6.75 Z "/>
<path style=" stroke:none;fill-rule:nonzero;fill:#FFF7F0;fill-opacity:1;" d="M 1.5 3.375 L 7.5 3.375 L 10.125 6 L 0.375 6 L 0.375 4.5 C 0.375 3.878906 0.878906 3.375 1.5 3.375 Z "/>
<path style=" stroke:none;fill-rule:nonzero;fill:#CDA1A7;fill-opacity:1;" d="M 20.625 7.125 L 22.125 7.125 C 22.539063 7.125 22.875 7.460938 22.875 7.875 L 22.875 19.5 C 22.875 20.121094 22.371094 20.625 21.75 20.625 L 20.625 20.625 Z "/>
<path style=" stroke:none;fill-rule:nonzero;fill:#EFD8BE;fill-opacity:1;" d="M 0.375 16.875 L 20.625 16.875 L 20.625 20.625 L 1.5 20.625 C 0.878906 20.625 0.375 20.121094 0.375 19.5 Z "/>
<path style=" stroke:none;fill-rule:nonzero;fill:#ED7899;fill-opacity:1;" d="M 14.296875 8.195313 C 13.84375 7.742188 13.230469 7.488281 12.59375 7.488281 C 11.957031 7.488281 11.34375 7.742188 10.894531 8.195313 L 10.519531 8.570313 L 10.144531 8.195313 C 9.691406 7.742188 9.082031 7.488281 8.445313 7.488281 C 7.804688 7.488281 7.195313 7.742188 6.742188 8.195313 C 6.292969 8.644531 6.039063 9.257813 6.039063 9.894531 C 6.039063 10.53125 6.292969 11.144531 6.742188 11.597656 L 10.3125 15.164063 C 10.371094 15.222656 10.449219 15.257813 10.53125 15.257813 C 10.613281 15.257813 10.695313 15.222656 10.753906 15.164063 L 14.316406 11.597656 C 14.765625 11.140625 15.015625 10.527344 15.011719 9.890625 C 15.007813 9.253906 14.75 8.640625 14.296875 8.195313 Z "/>
<path style=" stroke:none;fill-rule:nonzero;fill:#ED7899;fill-opacity:1;" d="M 14.296875 8.195313 C 13.84375 7.742188 13.230469 7.488281 12.59375 7.488281 C 11.957031 7.488281 11.34375 7.742188 10.894531 8.195313 L 10.519531 8.570313 L 10.144531 8.195313 C 9.691406 7.742188 9.082031 7.488281 8.445313 7.488281 C 7.804688 7.488281 7.195313 7.742188 6.742188 8.195313 C 6.292969 8.644531 6.039063 9.257813 6.039063 9.894531 C 6.039063 10.53125 6.292969 11.144531 6.742188 11.597656 L 10.3125 15.164063 C 10.371094 15.222656 10.449219 15.257813 10.53125 15.257813 C 10.613281 15.257813 10.695313 15.222656 10.753906 15.164063 L 14.316406 11.597656 C 14.765625 11.140625 15.015625 10.527344 15.011719 9.890625 C 15.007813 9.253906 14.75 8.640625 14.296875 8.195313 Z "/>
<path style=" stroke:none;fill-rule:nonzero;fill:#E0678F;fill-opacity:1;" d="M 13.320313 12.570313 L 10.730469 15.164063 C 10.605469 15.285156 10.410156 15.285156 10.289063 15.164063 L 10.070313 14.945313 C 9.484375 14.359375 9.484375 13.410156 10.070313 12.824219 L 11.820313 11.074219 C 12.234375 10.660156 12.90625 10.660156 13.320313 11.074219 C 13.730469 11.488281 13.730469 12.15625 13.320313 12.570313 Z "/>
<path style=" stroke:none;fill-rule:nonzero;fill:#F283A5;fill-opacity:1;" d="M 9.789063 9.300781 L 8.050781 7.566406 C 8.941406 7.429688 9.832031 7.78125 10.386719 8.492188 Z "/>
<path style=" stroke:none;fill-rule:nonzero;fill:#8D6C9F;fill-opacity:1;" d="M 19.125 16.5 L 17.625 16.5 C 17.417969 16.5 17.25 16.667969 17.25 16.875 C 17.25 17.082031 17.417969 17.25 17.625 17.25 L 19.125 17.25 C 19.332031 17.25 19.5 17.082031 19.5 16.875 C 19.5 16.667969 19.332031 16.5 19.125 16.5 Z "/>
<path style=" stroke:none;fill-rule:nonzero;fill:#8D6C9F;fill-opacity:1;" d="M 22.125 6.75 L 21 6.75 L 21 6.375 C 21 5.753906 20.496094 5.25 19.875 5.25 L 10.390625 5.25 C 10.09375 5.25 9.808594 5.132813 9.601563 4.921875 L 8.203125 3.542969 C 7.851563 3.195313 7.378906 3 6.886719 3 L 1.125 3 C 0.503906 3 0 3.503906 0 4.125 L 0 19.5 C 0 20.328125 0.671875 21 1.5 21 L 21.75 21 C 22.578125 21 23.25 20.328125 23.25 19.5 L 23.25 7.875 C 23.25 7.253906 22.746094 6.75 22.125 6.75 Z M 1.5 20.25 C 1.085938 20.25 0.75 19.914063 0.75 19.5 L 0.75 17.25 L 16.125 17.25 C 16.332031 17.25 16.5 17.082031 16.5 16.875 C 16.5 16.667969 16.332031 16.5 16.125 16.5 L 0.75 16.5 L 0.75 4.125 C 0.75 3.917969 0.917969 3.75 1.125 3.75 L 6.886719 3.75 C 7.183594 3.75 7.464844 3.867188 7.675781 4.078125 L 9.070313 5.457031 C 9.421875 5.804688 9.898438 6 10.390625 6 L 19.875 6 C 20.082031 6 20.25 6.167969 20.25 6.375 L 20.25 19.5 C 20.261719 19.765625 20.339844 20.027344 20.484375 20.25 Z M 22.5 19.5 C 22.5 19.914063 22.164063 20.25 21.75 20.25 C 21.355469 20.207031 21.042969 19.894531 21 19.5 L 21 7.5 L 22.125 7.5 C 22.332031 7.5 22.5 7.667969 22.5 7.875 Z "/>
<path style=" stroke:none;fill-rule:nonzero;fill:#8D6C9F;fill-opacity:1;" d="M 1.875 18 C 1.667969 18 1.5 18.167969 1.5 18.375 L 1.5 19.125 C 1.5 19.332031 1.667969 19.5 1.875 19.5 C 2.082031 19.5 2.25 19.332031 2.25 19.125 L 2.25 18.375 C 2.25 18.167969 2.082031 18 1.875 18 Z "/>
<path style=" stroke:none;fill-rule:nonzero;fill:#8D6C9F;fill-opacity:1;" d="M 3.75 18 C 3.542969 18 3.375 18.167969 3.375 18.375 L 3.375 19.125 C 3.375 19.332031 3.542969 19.5 3.75 19.5 C 3.957031 19.5 4.125 19.332031 4.125 19.125 L 4.125 18.375 C 4.125 18.167969 3.957031 18 3.75 18 Z "/>
<path style=" stroke:none;fill-rule:nonzero;fill:#8D6C9F;fill-opacity:1;" d="M 5.625 18 C 5.417969 18 5.25 18.167969 5.25 18.375 L 5.25 19.125 C 5.25 19.332031 5.417969 19.5 5.625 19.5 C 5.832031 19.5 6 19.332031 6 19.125 L 6 18.375 C 6 18.167969 5.832031 18 5.625 18 Z "/>
<path style=" stroke:none;fill-rule:nonzero;fill:#8D6C9F;fill-opacity:1;" d="M 7.5 18 C 7.292969 18 7.125 18.167969 7.125 18.375 L 7.125 19.125 C 7.125 19.332031 7.292969 19.5 7.5 19.5 C 7.707031 19.5 7.875 19.332031 7.875 19.125 L 7.875 18.375 C 7.875 18.167969 7.707031 18 7.5 18 Z "/>
<path style=" stroke:none;fill-rule:nonzero;fill:#8D6C9F;fill-opacity:1;" d="M 9.375 18 C 9.167969 18 9 18.167969 9 18.375 L 9 19.125 C 9 19.332031 9.167969 19.5 9.375 19.5 C 9.582031 19.5 9.75 19.332031 9.75 19.125 L 9.75 18.375 C 9.75 18.167969 9.582031 18 9.375 18 Z "/>
<path style=" stroke:none;fill-rule:nonzero;fill:#8D6C9F;fill-opacity:1;" d="M 11.25 18 C 11.042969 18 10.875 18.167969 10.875 18.375 L 10.875 19.125 C 10.875 19.332031 11.042969 19.5 11.25 19.5 C 11.457031 19.5 11.625 19.332031 11.625 19.125 L 11.625 18.375 C 11.625 18.167969 11.457031 18 11.25 18 Z "/>
<path style=" stroke:none;fill-rule:nonzero;fill:#8D6C9F;fill-opacity:1;" d="M 13.125 18 C 12.917969 18 12.75 18.167969 12.75 18.375 L 12.75 19.125 C 12.75 19.332031 12.917969 19.5 13.125 19.5 C 13.332031 19.5 13.5 19.332031 13.5 19.125 L 13.5 18.375 C 13.5 18.167969 13.332031 18 13.125 18 Z "/>
<path style=" stroke:none;fill-rule:nonzero;fill:#8D6C9F;fill-opacity:1;" d="M 15 18 C 14.792969 18 14.625 18.167969 14.625 18.375 L 14.625 19.125 C 14.625 19.332031 14.792969 19.5 15 19.5 C 15.207031 19.5 15.375 19.332031 15.375 19.125 L 15.375 18.375 C 15.375 18.167969 15.207031 18 15 18 Z "/>
<path style=" stroke:none;fill-rule:nonzero;fill:#8D6C9F;fill-opacity:1;" d="M 16.875 18 C 16.667969 18 16.5 18.167969 16.5 18.375 L 16.5 19.125 C 16.5 19.332031 16.667969 19.5 16.875 19.5 C 17.082031 19.5 17.25 19.332031 17.25 19.125 L 17.25 18.375 C 17.25 18.167969 17.082031 18 16.875 18 Z "/>
<path style=" stroke:none;fill-rule:nonzero;fill:#8D6C9F;fill-opacity:1;" d="M 18.75 18 C 18.542969 18 18.375 18.167969 18.375 18.375 L 18.375 19.125 C 18.375 19.332031 18.542969 19.5 18.75 19.5 C 18.957031 19.5 19.125 19.332031 19.125 19.125 L 19.125 18.375 C 19.125 18.167969 18.957031 18 18.75 18 Z "/>
<path style=" stroke:none;fill-rule:nonzero;fill:#8D6C9F;fill-opacity:1;" d="M 12.597656 7.125 C 11.859375 7.125 11.152344 7.417969 10.632813 7.941406 L 10.511719 8.058594 L 10.390625 7.941406 C 9.300781 6.902344 7.582031 6.925781 6.519531 7.984375 C 5.453125 9.046875 5.425781 10.761719 6.453125 11.859375 L 10.023438 15.429688 C 10.152344 15.554688 10.324219 15.625 10.507813 15.625 C 10.6875 15.625 10.863281 15.554688 10.992188 15.421875 L 14.558594 11.855469 C 15.339844 11.058594 15.574219 9.871094 15.144531 8.839844 C 14.71875 7.808594 13.710938 7.132813 12.597656 7.125 Z M 14.03125 11.339844 L 10.5 14.851563 L 6.976563 11.324219 C 6.179688 10.53125 6.179688 9.246094 6.976563 8.453125 C 7.769531 7.660156 9.054688 7.660156 9.847656 8.453125 L 9.96875 8.574219 L 9.777344 8.765625 C 9.667969 8.855469 9.621094 9 9.65625 9.136719 C 9.6875 9.273438 9.796875 9.382813 9.933594 9.414063 C 10.070313 9.445313 10.214844 9.398438 10.304688 9.292969 L 11.148438 8.449219 C 11.941406 7.65625 13.226563 7.65625 14.023438 8.449219 C 14.8125 9.242188 14.8125 10.527344 14.023438 11.320313 Z "/>
</g>
</svg>
