<?xml version="1.0" encoding="UTF-8"?>
<svg xmlns="http://www.w3.org/2000/svg" xmlns:xlink="http://www.w3.org/1999/xlink" width="24pt" height="24pt" viewBox="0 0 24 24" version="1.1">
<g id="surface1">
<path style=" stroke:none;fill-rule:nonzero;fill:#FAEFDE;fill-opacity:1;" d="M 20.625 12.375 L 11.625 4.875 L 2.625 12.375 L 2.625 21.375 L 20.625 21.375 Z "/>
<path style=" stroke:none;fill-rule:nonzero;fill:#EFD8BE;fill-opacity:1;" d="M 11.625 4.875 L 2.625 12.375 L 2.625 13.011719 C 2.625 13.425781 2.960938 13.761719 3.375 13.761719 C 3.5625 13.761719 3.710938 13.6875 3.863281 13.574219 L 11.398438 7.3125 C 11.550781 7.199219 11.738281 7.199219 11.886719 7.3125 L 19.425781 13.574219 C 19.726563 13.835938 20.210938 13.800781 20.476563 13.460938 C 20.585938 13.3125 20.664063 13.164063 20.664063 12.976563 L 20.664063 12.375 Z "/>
<path style=" stroke:none;fill-rule:nonzero;fill:#F9DD8F;fill-opacity:1;" d="M 2.625 17.625 L 20.625 17.625 L 20.625 21.375 L 2.625 21.375 Z "/>
<path style=" stroke:none;fill-rule:nonzero;fill:#CDA1A7;fill-opacity:1;" d="M 11.851563 5.0625 L 21.488281 12.976563 C 21.636719 13.085938 21.898438 13.085938 22.011719 12.9375 C 22.050781 12.863281 22.085938 12.789063 22.085938 12.710938 L 22.085938 11.625 C 22.085938 11.398438 21.976563 11.175781 21.824219 11.0625 L 12.113281 3 C 11.851563 2.773438 11.4375 2.773438 11.175781 3 L 1.425781 11.023438 C 1.238281 11.175781 1.125 11.363281 1.125 11.625 L 1.125 12.710938 C 1.125 12.9375 1.3125 13.085938 1.5 13.085938 C 1.574219 13.085938 1.648438 13.050781 1.726563 13.011719 L 11.363281 5.101563 C 11.511719 4.949219 11.738281 4.949219 11.851563 5.0625 Z "/>
<path style=" stroke:none;fill-rule:nonzero;fill:#8D6C9F;fill-opacity:1;" d="M 6 18.75 C 5.773438 18.75 5.625 18.898438 5.625 19.125 L 5.625 19.875 C 5.625 20.101563 5.773438 20.25 6 20.25 C 6.226563 20.25 6.375 20.101563 6.375 19.875 L 6.375 19.125 C 6.375 18.898438 6.226563 18.75 6 18.75 Z "/>
<path style=" stroke:none;fill-rule:nonzero;fill:#8D6C9F;fill-opacity:1;" d="M 4.125 18.75 C 3.898438 18.75 3.75 18.898438 3.75 19.125 L 3.75 19.875 C 3.75 20.101563 3.898438 20.25 4.125 20.25 C 4.351563 20.25 4.5 20.101563 4.5 19.875 L 4.5 19.125 C 4.5 18.898438 4.351563 18.75 4.125 18.75 Z "/>
<path style=" stroke:none;fill-rule:nonzero;fill:#8D6C9F;fill-opacity:1;" d="M 17.25 18.75 C 17.023438 18.75 16.875 18.898438 16.875 19.125 L 16.875 19.875 C 16.875 20.101563 17.023438 20.25 17.25 20.25 C 17.476563 20.25 17.625 20.101563 17.625 19.875 L 17.625 19.125 C 17.625 18.898438 17.476563 18.75 17.25 18.75 Z "/>
<path style=" stroke:none;fill-rule:nonzero;fill:#8D6C9F;fill-opacity:1;" d="M 19.125 18.75 C 18.898438 18.75 18.75 18.898438 18.75 19.125 L 18.75 19.875 C 18.75 20.101563 18.898438 20.25 19.125 20.25 C 19.351563 20.25 19.5 20.101563 19.5 19.875 L 19.5 19.125 C 19.5 18.898438 19.351563 18.75 19.125 18.75 Z "/>
<path style=" stroke:none;fill-rule:nonzero;fill:#BBDEF9;fill-opacity:1;" d="M 13.125 9 C 13.125 9.828125 12.453125 10.5 11.625 10.5 C 10.796875 10.5 10.125 9.828125 10.125 9 C 10.125 8.171875 10.796875 7.5 11.625 7.5 C 12.453125 7.5 13.125 8.171875 13.125 9 Z "/>
<path style=" stroke:none;fill-rule:nonzero;fill:#8D6C9F;fill-opacity:1;" d="M 11.625 7.125 C 10.574219 7.125 9.75 7.949219 9.75 9 C 9.75 10.050781 10.574219 10.875 11.625 10.875 C 12.675781 10.875 13.5 10.050781 13.5 9 C 13.5 7.949219 12.675781 7.125 11.625 7.125 Z M 11.625 10.199219 C 10.949219 10.199219 10.425781 9.675781 10.425781 9 C 10.425781 8.324219 10.949219 7.800781 11.625 7.800781 C 12.300781 7.800781 12.824219 8.324219 12.824219 9 C 12.824219 9.675781 12.300781 10.199219 11.625 10.199219 Z "/>
<path style=" stroke:none;fill-rule:nonzero;fill:#ED7899;fill-opacity:1;" d="M 9.375 13.875 L 13.875 13.875 L 13.875 21.375 L 9.375 21.375 Z "/>
<path style=" stroke:none;fill-rule:nonzero;fill:#8D6C9F;fill-opacity:1;" d="M 12.375 16.875 C 12.148438 16.875 12 17.023438 12 17.25 L 12 18 C 12 18.226563 12.148438 18.375 12.375 18.375 C 12.601563 18.375 12.75 18.226563 12.75 18 L 12.75 17.25 C 12.75 17.023438 12.601563 16.875 12.375 16.875 Z "/>
<path style=" stroke:none;fill-rule:nonzero;fill:#8D6C9F;fill-opacity:1;" d="M 21.261719 13.273438 C 21.601563 13.539063 22.050781 13.5 22.3125 13.164063 C 22.425781 13.011719 22.5 12.863281 22.5 12.675781 L 22.5 11.625 C 22.5 11.289063 22.351563 10.949219 22.085938 10.761719 L 12.335938 2.738281 C 11.925781 2.398438 11.324219 2.398438 10.914063 2.738281 L 6.75 6.148438 L 6.75 4.914063 C 6.75 4.6875 6.601563 4.539063 6.375 4.539063 C 6.148438 4.539063 6 4.6875 6 4.914063 L 6 6.789063 L 5.25 7.386719 L 5.25 3.414063 C 5.25 3.1875 5.101563 3.039063 4.875 3.039063 C 4.648438 3.039063 4.5 3.1875 4.5 3.414063 L 4.5 7.914063 C 4.5 7.949219 4.5 7.949219 4.5 7.988281 L 1.164063 10.761719 C 0.898438 10.949219 0.75 11.289063 0.75 11.625 L 0.75 12.710938 C 0.75 13.011719 0.898438 13.273438 1.199219 13.386719 C 1.460938 13.5 1.761719 13.460938 1.988281 13.273438 L 2.25 13.050781 L 2.25 21 L 1.125 21 C 0.898438 21 0.75 21.148438 0.75 21.375 C 0.75 21.601563 0.898438 21.75 1.125 21.75 L 22.125 21.75 C 22.351563 21.75 22.5 21.601563 22.5 21.375 C 22.5 21.148438 22.351563 21 22.125 21 L 21 21 L 21 13.050781 Z M 8.25 21 L 3 21 L 3 18 L 9 18 L 9 21 Z M 9.75 21 L 9.75 14.25 L 13.5 14.25 L 13.5 21 Z M 20.25 21 L 14.25 21 L 14.25 18 L 20.25 18 Z M 20.25 14.25 L 20.25 17.25 L 14.25 17.25 L 14.25 14.25 C 14.25 13.835938 13.914063 13.5 13.5 13.5 L 9.75 13.5 C 9.335938 13.5 9 13.835938 9 14.25 L 9 17.25 L 3 17.25 L 3 12.449219 L 11.625 5.363281 L 20.25 12.449219 Z M 12.113281 4.800781 C 11.851563 4.574219 11.4375 4.574219 11.175781 4.800781 L 1.5 12.710938 L 1.5 11.625 C 1.5 11.511719 1.539063 11.398438 1.648438 11.324219 L 11.398438 3.300781 C 11.550781 3.1875 11.738281 3.1875 11.886719 3.300781 L 21.636719 11.324219 C 21.710938 11.398438 21.789063 11.511719 21.789063 11.625 L 21.789063 12.710938 Z "/>
<path style=" stroke:none;fill-rule:nonzero;fill:#8D6C9F;fill-opacity:1;" d="M 7.875 18.75 C 7.648438 18.75 7.5 18.898438 7.5 19.125 L 7.5 19.875 C 7.5 20.101563 7.648438 20.25 7.875 20.25 C 8.101563 20.25 8.25 20.101563 8.25 19.875 L 8.25 19.125 C 8.25 18.898438 8.101563 18.75 7.875 18.75 Z "/>
<path style=" stroke:none;fill-rule:nonzero;fill:#8D6C9F;fill-opacity:1;" d="M 15.375 18.75 C 15.148438 18.75 15 18.898438 15 19.125 L 15 19.875 C 15 20.101563 15.148438 20.25 15.375 20.25 C 15.601563 20.25 15.75 20.101563 15.75 19.875 L 15.75 19.125 C 15.75 18.898438 15.601563 18.75 15.375 18.75 Z "/>
</g>
</svg>
