<?xml version="1.0" encoding="UTF-8"?>
<svg xmlns="http://www.w3.org/2000/svg" xmlns:xlink="http://www.w3.org/1999/xlink" width="24pt" height="24pt" viewBox="0 0 24 24" version="1.1">
<g id="surface1">
<path style=" stroke:none;fill-rule:nonzero;fill:#CDA1A7;fill-opacity:1;" d="M 2.625 2.625 L 21.375 2.625 C 21.789063 2.625 22.125 2.960938 22.125 3.375 L 22.125 20.625 C 22.125 21.039063 21.789063 21.375 21.375 21.375 L 2.625 21.375 C 2.210938 21.375 1.875 21.039063 1.875 20.625 L 1.875 3.375 C 1.875 2.960938 2.210938 2.625 2.625 2.625 Z "/>
<path style=" stroke:none;fill-rule:nonzero;fill:#C4939C;fill-opacity:1;" d="M 3.375 19.5 L 20.625 19.5 C 21.453125 19.5 22.125 20.171875 22.125 21 C 22.125 21.207031 21.957031 21.375 21.75 21.375 L 2.25 21.375 C 2.042969 21.375 1.875 21.207031 1.875 21 C 1.875 20.171875 2.546875 19.5 3.375 19.5 Z "/>
<path style=" stroke:none;fill-rule:nonzero;fill:#F9E3AE;fill-opacity:1;" d="M 19.125 8.625 L 14.625 7.875 L 14.625 14.097656 C 14.265625 13.949219 13.886719 13.875 13.5 13.875 C 12.046875 13.875 10.875 14.882813 10.875 16.125 C 10.875 17.367188 12.046875 18.375 13.5 18.375 C 14.953125 18.375 16.125 17.367188 16.125 16.125 L 16.125 10.753906 L 19.125 11.25 Z "/>
<path style=" stroke:none;fill-rule:nonzero;fill:#8D6C9F;fill-opacity:1;" d="M 21.375 2.25 L 2.625 2.25 C 2.003906 2.25 1.5 2.753906 1.5 3.375 L 1.5 20.625 C 1.5 21.246094 2.003906 21.75 2.625 21.75 L 21.375 21.75 C 21.996094 21.75 22.5 21.246094 22.5 20.625 L 22.5 3.375 C 22.5 2.753906 21.996094 2.25 21.375 2.25 Z M 21.75 20.625 C 21.75 20.832031 21.582031 21 21.375 21 L 2.625 21 C 2.417969 21 2.25 20.832031 2.25 20.625 L 2.25 3.375 C 2.25 3.167969 2.417969 3 2.625 3 L 21.375 3 C 21.582031 3 21.75 3.167969 21.75 3.375 Z "/>
<path style=" stroke:none;fill-rule:nonzero;fill:#8D6C9F;fill-opacity:1;" d="M 5.625 4.875 L 5.625 4.125 C 5.625 3.917969 5.457031 3.75 5.25 3.75 C 5.042969 3.75 4.875 3.917969 4.875 4.125 L 4.875 4.875 C 4.875 5.082031 5.042969 5.25 5.25 5.25 C 5.457031 5.25 5.625 5.082031 5.625 4.875 Z "/>
<path style=" stroke:none;fill-rule:nonzero;fill:#8D6C9F;fill-opacity:1;" d="M 3.375 3.75 C 3.167969 3.75 3 3.917969 3 4.125 L 3 4.875 C 3 5.082031 3.167969 5.25 3.375 5.25 C 3.582031 5.25 3.75 5.082031 3.75 4.875 L 3.75 4.125 C 3.75 3.917969 3.582031 3.75 3.375 3.75 Z "/>
<path style=" stroke:none;fill-rule:nonzero;fill:#8D6C9F;fill-opacity:1;" d="M 10.875 5.25 C 11.082031 5.25 11.25 5.082031 11.25 4.875 L 11.25 4.125 C 11.25 3.917969 11.082031 3.75 10.875 3.75 C 10.667969 3.75 10.5 3.917969 10.5 4.125 L 10.5 4.875 C 10.5 5.082031 10.667969 5.25 10.875 5.25 Z "/>
<path style=" stroke:none;fill-rule:nonzero;fill:#8D6C9F;fill-opacity:1;" d="M 12.75 5.25 C 12.957031 5.25 13.125 5.082031 13.125 4.875 L 13.125 4.125 C 13.125 3.917969 12.957031 3.75 12.75 3.75 C 12.542969 3.75 12.375 3.917969 12.375 4.125 L 12.375 4.875 C 12.375 5.082031 12.542969 5.25 12.75 5.25 Z "/>
<path style=" stroke:none;fill-rule:nonzero;fill:#8D6C9F;fill-opacity:1;" d="M 14.625 5.25 C 14.832031 5.25 15 5.082031 15 4.875 L 15 4.125 C 15 3.917969 14.832031 3.75 14.625 3.75 C 14.417969 3.75 14.25 3.917969 14.25 4.125 L 14.25 4.875 C 14.25 5.082031 14.417969 5.25 14.625 5.25 Z "/>
<path style=" stroke:none;fill-rule:nonzero;fill:#8D6C9F;fill-opacity:1;" d="M 16.5 5.25 C 16.707031 5.25 16.875 5.082031 16.875 4.875 L 16.875 4.125 C 16.875 3.917969 16.707031 3.75 16.5 3.75 C 16.292969 3.75 16.125 3.917969 16.125 4.125 L 16.125 4.875 C 16.125 5.082031 16.292969 5.25 16.5 5.25 Z "/>
<path style=" stroke:none;fill-rule:nonzero;fill:#8D6C9F;fill-opacity:1;" d="M 18.375 5.25 C 18.582031 5.25 18.75 5.082031 18.75 4.875 L 18.75 4.125 C 18.75 3.917969 18.582031 3.75 18.375 3.75 C 18.167969 3.75 18 3.917969 18 4.125 L 18 4.875 C 18 5.082031 18.167969 5.25 18.375 5.25 Z "/>
<path style=" stroke:none;fill-rule:nonzero;fill:#8D6C9F;fill-opacity:1;" d="M 20.25 3.75 C 20.042969 3.75 19.875 3.917969 19.875 4.125 L 19.875 4.875 C 19.875 5.082031 20.042969 5.25 20.25 5.25 C 20.457031 5.25 20.625 5.082031 20.625 4.875 L 20.625 4.125 C 20.625 3.917969 20.457031 3.75 20.25 3.75 Z "/>
<path style=" stroke:none;fill-rule:nonzero;fill:#8D6C9F;fill-opacity:1;" d="M 7.125 5.25 C 7.332031 5.25 7.5 5.082031 7.5 4.875 L 7.5 4.125 C 7.5 3.917969 7.332031 3.75 7.125 3.75 C 6.917969 3.75 6.75 3.917969 6.75 4.125 L 6.75 4.875 C 6.75 5.082031 6.917969 5.25 7.125 5.25 Z "/>
<path style=" stroke:none;fill-rule:nonzero;fill:#8D6C9F;fill-opacity:1;" d="M 9 5.25 C 9.207031 5.25 9.375 5.082031 9.375 4.875 L 9.375 4.125 C 9.375 3.917969 9.207031 3.75 9 3.75 C 8.792969 3.75 8.625 3.917969 8.625 4.125 L 8.625 4.875 C 8.625 5.082031 8.792969 5.25 9 5.25 Z "/>
<path style=" stroke:none;fill-rule:nonzero;fill:#FAEFDE;fill-opacity:1;" d="M 9.375 13.5 L 5.625 13.5 C 5.417969 13.5 5.25 13.667969 5.25 13.875 C 5.25 14.082031 5.417969 14.25 5.625 14.25 L 9.375 14.25 C 9.582031 14.25 9.75 14.082031 9.75 13.875 C 9.75 13.667969 9.582031 13.5 9.375 13.5 Z "/>
<path style=" stroke:none;fill-rule:nonzero;fill:#FAEFDE;fill-opacity:1;" d="M 9 15.75 L 5.625 15.75 C 5.417969 15.75 5.25 15.917969 5.25 16.125 C 5.25 16.332031 5.417969 16.5 5.625 16.5 L 9 16.5 C 9.207031 16.5 9.375 16.332031 9.375 16.125 C 9.375 15.917969 9.207031 15.75 9 15.75 Z "/>
<path style=" stroke:none;fill-rule:nonzero;fill:#FAEFDE;fill-opacity:1;" d="M 12.75 11.25 L 5.625 11.25 C 5.417969 11.25 5.25 11.417969 5.25 11.625 C 5.25 11.832031 5.417969 12 5.625 12 L 12.75 12 C 12.957031 12 13.125 11.832031 13.125 11.625 C 13.125 11.417969 12.957031 11.25 12.75 11.25 Z "/>
<path style=" stroke:none;fill-rule:nonzero;fill:#FAEFDE;fill-opacity:1;" d="M 12.75 9 L 5.625 9 C 5.417969 9 5.25 9.167969 5.25 9.375 C 5.25 9.582031 5.417969 9.75 5.625 9.75 L 12.75 9.75 C 12.957031 9.75 13.125 9.582031 13.125 9.375 C 13.125 9.167969 12.957031 9 12.75 9 Z "/>
<path style=" stroke:none;fill-rule:nonzero;fill:#8D6C9F;fill-opacity:1;" d="M 19.183594 8.25 L 14.683594 7.5 C 14.578125 7.480469 14.464844 7.511719 14.382813 7.582031 C 14.296875 7.65625 14.246094 7.761719 14.25 7.875 L 14.25 13.582031 C 14.003906 13.527344 13.75 13.5 13.5 13.5 C 11.847656 13.5 10.5 14.679688 10.5 16.125 C 10.5 17.570313 11.847656 18.75 13.5 18.75 C 15.152344 18.75 16.5 17.570313 16.5 16.125 L 16.5 11.195313 L 19.066406 11.625 C 19.175781 11.644531 19.285156 11.613281 19.371094 11.539063 C 19.453125 11.46875 19.5 11.363281 19.5 11.25 L 19.5 8.625 C 19.503906 8.4375 19.367188 8.28125 19.183594 8.25 Z M 18.75 10.808594 L 16.183594 10.378906 C 16.074219 10.363281 15.964844 10.394531 15.878906 10.464844 C 15.796875 10.539063 15.75 10.644531 15.75 10.753906 L 15.75 16.125 C 15.75 17.160156 14.742188 18 13.5 18 C 12.257813 18 11.25 17.160156 11.25 16.125 C 11.25 15.089844 12.257813 14.25 13.5 14.25 C 13.835938 14.25 14.171875 14.3125 14.484375 14.441406 C 14.597656 14.488281 14.730469 14.476563 14.835938 14.40625 C 14.9375 14.335938 15 14.21875 15 14.09375 L 15 8.316406 L 18.75 8.945313 Z "/>
</g>
</svg>
