<?xml version="1.0" encoding="UTF-8"?>
<svg xmlns="http://www.w3.org/2000/svg" xmlns:xlink="http://www.w3.org/1999/xlink" width="16pt" height="16pt" viewBox="0 0 16 16" version="1.1">
<g id="surface1">
<path style=" stroke:none;fill-rule:nonzero;fill:#F9E3AE;fill-opacity:1;" d="M 4.25 3.679688 L 4.25 10.796875 C 4.25 10.871094 4.21875 10.941406 4.164063 10.992188 C 4.105469 11.039063 4.027344 11.058594 3.957031 11.046875 C 3.804688 11.015625 3.652344 11.003906 3.5 11 C 2.25 11 1.25 11.839844 1.25 12.875 C 1.25 13.910156 2.25 14.75 3.5 14.75 C 4.691406 14.75 5.664063 13.976563 5.75 13 L 5.75 6.726563 C 5.75 6.605469 5.839844 6.496094 5.960938 6.476563 L 11.960938 5.53125 C 12.035156 5.519531 12.109375 5.539063 12.164063 5.589844 C 12.21875 5.636719 12.25 5.707031 12.25 5.78125 L 12.25 9.296875 C 12.25 9.371094 12.21875 9.441406 12.164063 9.492188 C 12.105469 9.539063 12.027344 9.558594 11.957031 9.546875 C 11.804688 9.515625 11.652344 9.503906 11.5 9.5 C 10.25 9.5 9.25 10.339844 9.25 11.375 C 9.25 12.410156 10.25 13.25 11.5 13.25 C 12.691406 13.25 13.664063 12.476563 13.75 11.5 L 13.75 2.335938 C 13.753906 2.1875 13.6875 2.046875 13.578125 1.953125 C 13.464844 1.855469 13.320313 1.8125 13.171875 1.835938 L 4.671875 3.179688 C 4.425781 3.214844 4.246094 3.429688 4.25 3.679688 Z "/>
<path style=" stroke:none;fill-rule:nonzero;fill:#F6D397;fill-opacity:1;" d="M 3.75 13.5 C 2.644531 13.5 1.726563 12.835938 1.539063 11.960938 C 1.351563 12.230469 1.253906 12.546875 1.25 12.875 C 1.25 13.910156 2.25 14.75 3.5 14.75 C 4.691406 14.75 5.664063 13.976563 5.75 13 L 5.75 12.5 C 5.296875 13.152344 4.542969 13.53125 3.75 13.5 Z "/>
<path style=" stroke:none;fill-rule:nonzero;fill:#F6D397;fill-opacity:1;" d="M 11.75 12 C 10.644531 12 9.726563 11.335938 9.539063 10.460938 C 9.351563 10.730469 9.253906 11.046875 9.25 11.375 C 9.25 12.410156 10.25 13.25 11.5 13.25 C 12.691406 13.25 13.664063 12.476563 13.75 11.5 L 13.75 11 C 13.296875 11.652344 12.542969 12.03125 11.75 12 Z "/>
<path style=" stroke:none;fill-rule:nonzero;fill:#FAEFDE;fill-opacity:1;" d="M 13.75 2.335938 C 13.753906 2.1875 13.6875 2.046875 13.578125 1.953125 C 13.464844 1.855469 13.320313 1.8125 13.171875 1.835938 L 4.671875 3.179688 C 4.425781 3.214844 4.246094 3.429688 4.25 3.679688 L 4.25 4.5 L 13.75 3 Z "/>
<path style=" stroke:none;fill-rule:nonzero;fill:#8D6C9F;fill-opacity:1;" d="M 13.988281 1.765625 C 13.820313 1.621094 13.601563 1.5625 13.382813 1.59375 L 4.882813 2.9375 C 4.515625 2.996094 4.246094 3.316406 4.25 3.6875 L 4.25 10.792969 C 4.085938 10.765625 3.917969 10.75 3.75 10.75 C 2.371094 10.75 1.25 11.703125 1.25 12.875 C 1.25 14.046875 2.371094 15 3.75 15 C 5.058594 15 6.160156 14.128906 6.25 13 L 6.25 6.726563 L 12.25 5.78125 L 12.25 9.292969 C 12.085938 9.265625 11.917969 9.25 11.75 9.25 C 10.371094 9.25 9.25 10.203125 9.25 11.375 C 9.25 12.546875 10.371094 13.5 11.75 13.5 C 13.058594 13.5 14.160156 12.628906 14.25 11.5 L 14.25 2.335938 C 14.25 2.117188 14.15625 1.90625 13.988281 1.765625 Z M 13.75 11.480469 C 13.683594 12.332031 12.800781 13 11.75 13 C 10.648438 13 9.75 12.269531 9.75 11.375 C 9.75 10.480469 10.648438 9.75 11.75 9.75 C 11.890625 9.75 12.027344 9.761719 12.164063 9.785156 C 12.308594 9.8125 12.460938 9.769531 12.574219 9.675781 C 12.683594 9.582031 12.75 9.441406 12.75 9.296875 L 12.75 5.78125 C 12.753906 5.632813 12.6875 5.492188 12.578125 5.394531 C 12.464844 5.300781 12.320313 5.257813 12.171875 5.28125 L 6.171875 6.226563 C 5.925781 6.265625 5.746094 6.480469 5.75 6.726563 L 5.75 12.976563 C 5.683594 13.832031 4.800781 14.5 3.75 14.5 C 2.648438 14.5 1.75 13.769531 1.75 12.875 C 1.75 11.980469 2.648438 11.25 3.75 11.25 C 3.890625 11.25 4.027344 11.261719 4.164063 11.285156 C 4.308594 11.3125 4.460938 11.269531 4.574219 11.175781 C 4.683594 11.082031 4.75 10.941406 4.75 10.796875 L 4.75 3.679688 C 4.75 3.554688 4.839844 3.445313 4.964844 3.429688 L 13.464844 2.085938 C 13.535156 2.074219 13.609375 2.09375 13.667969 2.144531 C 13.722656 2.191406 13.753906 2.261719 13.753906 2.335938 Z "/>
<path style=" stroke:none;fill-rule:nonzero;fill:#8D6C9F;fill-opacity:1;" d="M 7.75 3.4375 C 7.613281 3.4375 7.5 3.550781 7.5 3.6875 L 7.5 4.1875 C 7.5 4.324219 7.613281 4.4375 7.75 4.4375 C 7.886719 4.4375 8 4.324219 8 4.1875 L 8 3.6875 C 8 3.550781 7.886719 3.4375 7.75 3.4375 Z "/>
<path style=" stroke:none;fill-rule:nonzero;fill:#8D6C9F;fill-opacity:1;" d="M 6.5 3.625 C 6.363281 3.625 6.25 3.738281 6.25 3.875 L 6.25 4.375 C 6.25 4.511719 6.363281 4.625 6.5 4.625 C 6.636719 4.625 6.75 4.511719 6.75 4.375 L 6.75 3.875 C 6.75 3.738281 6.636719 3.625 6.5 3.625 Z "/>
<path style=" stroke:none;fill-rule:nonzero;fill:#8D6C9F;fill-opacity:1;" d="M 5.25 3.8125 C 5.113281 3.8125 5 3.925781 5 4.0625 L 5 4.5625 C 5 4.699219 5.113281 4.8125 5.25 4.8125 C 5.386719 4.8125 5.5 4.699219 5.5 4.5625 L 5.5 4.0625 C 5.5 3.925781 5.386719 3.8125 5.25 3.8125 Z "/>
<path style=" stroke:none;fill-rule:nonzero;fill:#8D6C9F;fill-opacity:1;" d="M 9 3.1875 C 8.863281 3.1875 8.75 3.300781 8.75 3.4375 L 8.75 3.9375 C 8.75 4.074219 8.863281 4.1875 9 4.1875 C 9.136719 4.1875 9.25 4.074219 9.25 3.9375 L 9.25 3.4375 C 9.25 3.300781 9.136719 3.1875 9 3.1875 Z "/>
<path style=" stroke:none;fill-rule:nonzero;fill:#8D6C9F;fill-opacity:1;" d="M 10.25 3 C 10.113281 3 10 3.113281 10 3.25 L 10 3.75 C 10 3.886719 10.113281 4 10.25 4 C 10.386719 4 10.5 3.886719 10.5 3.75 L 10.5 3.25 C 10.5 3.113281 10.386719 3 10.25 3 Z "/>
<path style=" stroke:none;fill-rule:nonzero;fill:#8D6C9F;fill-opacity:1;" d="M 11.5 2.8125 C 11.363281 2.8125 11.25 2.925781 11.25 3.0625 L 11.25 3.5625 C 11.25 3.699219 11.363281 3.8125 11.5 3.8125 C 11.636719 3.8125 11.75 3.699219 11.75 3.5625 L 11.75 3.0625 C 11.75 2.925781 11.636719 2.8125 11.5 2.8125 Z "/>
<path style=" stroke:none;fill-rule:nonzero;fill:#8D6C9F;fill-opacity:1;" d="M 12.75 2.625 C 12.613281 2.625 12.5 2.738281 12.5 2.875 L 12.5 3.375 C 12.5 3.511719 12.613281 3.625 12.75 3.625 C 12.886719 3.625 13 3.511719 13 3.375 L 13 2.875 C 13 2.738281 12.886719 2.625 12.75 2.625 Z "/>
</g>
</svg>
