<?xml version="1.0" encoding="UTF-8"?>
<svg xmlns="http://www.w3.org/2000/svg" xmlns:xlink="http://www.w3.org/1999/xlink" width="24pt" height="24pt" viewBox="0 0 24 24" version="1.1">
<g id="surface1">
<path style=" stroke:none;fill-rule:nonzero;fill:#FFF7F0;fill-opacity:1;" d="M 15.179688 20.800781 L 14.054688 21.550781 C 12.808594 22.363281 11.203125 22.363281 9.957031 21.550781 L 8.832031 20.800781 C 5.429688 18.589844 3.378906 14.808594 3.375 10.753906 L 3.375 3.15625 C 3.375 2.839844 3.574219 2.554688 3.878906 2.449219 L 3.988281 2.40625 C 9.175781 0.601563 14.820313 0.601563 20.007813 2.40625 L 20.117188 2.449219 C 20.421875 2.554688 20.625 2.835938 20.625 3.15625 L 20.625 10.753906 C 20.625 14.804688 18.574219 18.585938 15.179688 20.800781 Z "/>
<path style=" stroke:none;fill-rule:nonzero;fill:#FAEFDE;fill-opacity:1;" d="M 20.121094 2.449219 L 20.007813 2.40625 C 17.433594 1.511719 14.726563 1.054688 12 1.058594 L 12 22.148438 C 12.726563 22.148438 13.4375 21.9375 14.046875 21.539063 L 15.171875 20.789063 C 18.570313 18.578125 20.617188 14.804688 20.625 10.753906 L 20.625 3.15625 C 20.625 2.839844 20.425781 2.554688 20.121094 2.449219 Z "/>
<path style=" stroke:none;fill-rule:nonzero;fill:#8B8E98;fill-opacity:1;" d="M 6 9 C 6 9 6.75 7.875 7.875 7.875 C 9 7.875 9.75 9 9.75 9 C 9.234375 9.46875 8.570313 9.734375 7.875 9.75 C 7.179688 9.734375 6.515625 9.46875 6 9 Z "/>
<path style=" stroke:none;fill-rule:nonzero;fill:#8B8E98;fill-opacity:1;" d="M 14.25 9 C 14.25 9 15 7.875 16.125 7.875 C 17.25 7.875 18 9 18 9 C 16.949219 10 15.300781 10 14.25 9 Z "/>
<path style=" stroke:none;fill-rule:nonzero;fill:#8D6C9F;fill-opacity:1;" d="M 20.25 2.097656 L 20.136719 2.054688 C 14.871094 0.230469 9.140625 0.230469 3.871094 2.054688 L 3.761719 2.097656 C 3.308594 2.25 3 2.679688 3 3.15625 L 3 10.753906 C 2.992188 14.9375 5.113281 18.839844 8.625 21.117188 L 9.75 21.867188 C 11.117188 22.757813 12.882813 22.757813 14.25 21.867188 L 15.375 21.117188 C 18.886719 18.839844 21.007813 14.9375 21 10.753906 L 21 3.15625 C 21 2.679688 20.699219 2.257813 20.25 2.097656 Z M 20.25 10.753906 C 20.261719 14.6875 18.273438 18.359375 14.972656 20.5 L 13.847656 21.25 C 12.726563 21.980469 11.28125 21.980469 10.164063 21.25 L 9.039063 20.5 C 5.734375 18.359375 3.742188 14.6875 3.75 10.753906 L 3.75 3.15625 C 3.75 3 3.851563 2.859375 4 2.804688 L 4.113281 2.765625 C 9.21875 0.996094 14.769531 0.996094 19.875 2.765625 L 19.988281 2.804688 C 20.136719 2.859375 20.238281 3 20.238281 3.15625 Z "/>
<path style=" stroke:none;fill-rule:nonzero;fill:#8D6C9F;fill-opacity:1;" d="M 15.570313 3.199219 C 16.03125 3.269531 16.496094 3.351563 16.949219 3.445313 L 17.027344 3.445313 C 17.234375 3.46875 17.421875 3.316406 17.445313 3.109375 C 17.464844 2.902344 17.3125 2.71875 17.109375 2.695313 C 16.640625 2.597656 16.160156 2.511719 15.683594 2.4375 C 15.476563 2.40625 15.28125 2.546875 15.25 2.757813 C 15.21875 2.964844 15.363281 3.15625 15.570313 3.1875 Z "/>
<path style=" stroke:none;fill-rule:nonzero;fill:#8D6C9F;fill-opacity:1;" d="M 7.464844 3.375 L 7.539063 3.375 C 9.492188 3.003906 11.488281 2.878906 13.472656 3 C 13.679688 3.011719 13.859375 2.855469 13.871094 2.648438 C 13.882813 2.441406 13.726563 2.261719 13.519531 2.25 C 11.472656 2.121094 9.417969 2.246094 7.398438 2.625 C 7.191406 2.644531 7.039063 2.828125 7.058594 3.035156 C 7.078125 3.242188 7.261719 3.394531 7.472656 3.375 Z "/>
<path style=" stroke:none;fill-rule:nonzero;fill:#8D6C9F;fill-opacity:1;" d="M 12.375 18.75 L 11.625 18.75 C 11.417969 18.75 11.25 18.917969 11.25 19.125 C 11.25 19.332031 11.417969 19.5 11.625 19.5 L 12.375 19.5 C 12.582031 19.5 12.75 19.332031 12.75 19.125 C 12.75 18.917969 12.582031 18.75 12.375 18.75 Z "/>
<path style=" stroke:none;fill-rule:nonzero;fill:#8D6C9F;fill-opacity:1;" d="M 12.375 17.25 L 11.625 17.25 C 11.417969 17.25 11.25 17.417969 11.25 17.625 C 11.25 17.832031 11.417969 18 11.625 18 L 12.375 18 C 12.582031 18 12.75 17.832031 12.75 17.625 C 12.75 17.417969 12.582031 17.25 12.375 17.25 Z "/>
<path style=" stroke:none;fill-rule:nonzero;fill:#8D6C9F;fill-opacity:1;" d="M 12.375 20.25 L 11.625 20.25 C 11.417969 20.25 11.25 20.417969 11.25 20.625 C 11.25 20.832031 11.417969 21 11.625 21 L 12.375 21 C 12.582031 21 12.75 20.832031 12.75 20.625 C 12.75 20.417969 12.582031 20.25 12.375 20.25 Z "/>
<path style=" stroke:none;fill-rule:nonzero;fill:#8D6C9F;fill-opacity:1;" d="M 7.875 7.5 C 6.5625 7.5 5.722656 8.738281 5.6875 8.792969 C 5.589844 8.941406 5.609375 9.140625 5.738281 9.265625 C 6.320313 9.804688 7.082031 10.109375 7.875 10.125 C 8.671875 10.109375 9.433594 9.804688 10.015625 9.265625 C 10.144531 9.140625 10.164063 8.941406 10.066406 8.792969 C 10.027344 8.738281 9.1875 7.5 7.875 7.5 Z M 7.875 9.375 C 7.394531 9.367188 6.925781 9.21875 6.535156 8.945313 C 6.867188 8.542969 7.351563 8.292969 7.875 8.25 C 8.398438 8.292969 8.882813 8.542969 9.222656 8.945313 C 8.824219 9.21875 8.355469 9.367188 7.875 9.375 Z "/>
<path style=" stroke:none;fill-rule:nonzero;fill:#8D6C9F;fill-opacity:1;" d="M 18.265625 9.265625 C 18.390625 9.140625 18.414063 8.941406 18.316406 8.792969 C 18.277344 8.738281 17.4375 7.5 16.125 7.5 C 14.8125 7.5 13.972656 8.738281 13.9375 8.792969 C 13.839844 8.941406 13.859375 9.140625 13.988281 9.265625 C 15.183594 10.410156 17.070313 10.410156 18.265625 9.265625 Z M 16.125 8.25 C 16.648438 8.292969 17.132813 8.542969 17.472656 8.945313 C 16.667969 9.519531 15.585938 9.519531 14.78125 8.945313 C 15.117188 8.542969 15.601563 8.292969 16.125 8.25 Z "/>
<path style=" stroke:none;fill-rule:nonzero;fill:#8D6C9F;fill-opacity:1;" d="M 19.195313 5.390625 C 18.738281 5.300781 18.277344 5.257813 17.8125 5.25 C 15.046875 5.25 13.617188 7.546875 13.554688 7.640625 C 13.464844 7.757813 13.449219 7.914063 13.515625 8.046875 C 13.582031 8.175781 13.71875 8.257813 13.867188 8.25 C 14.011719 8.242188 14.140625 8.152344 14.195313 8.015625 C 14.195313 8 15.464844 5.984375 17.816406 5.984375 C 18.234375 5.992188 18.648438 6.03125 19.058594 6.109375 C 19.265625 6.148438 19.464844 6.011719 19.503906 5.804688 C 19.542969 5.597656 19.40625 5.398438 19.199219 5.359375 Z "/>
<path style=" stroke:none;fill-rule:nonzero;fill:#8D6C9F;fill-opacity:1;" d="M 5.695313 6.125 C 6.105469 6.046875 6.523438 6.007813 6.9375 6 C 9.265625 6 10.535156 8 10.554688 8.035156 C 10.671875 8.179688 10.878906 8.21875 11.039063 8.125 C 11.203125 8.03125 11.269531 7.832031 11.199219 7.660156 C 11.136719 7.558594 9.699219 5.265625 6.941406 5.265625 C 6.476563 5.273438 6.011719 5.316406 5.558594 5.402344 C 5.351563 5.445313 5.214844 5.640625 5.253906 5.851563 C 5.292969 6.058594 5.492188 6.195313 5.699219 6.152344 Z "/>
<path style=" stroke:none;fill-rule:nonzero;fill:#8D6C9F;fill-opacity:1;" d="M 18.109375 13.234375 L 15.921875 15.421875 C 15.710938 15.632813 15.425781 15.75 15.128906 15.75 L 13.546875 15.75 C 13.417969 15.75 13.292969 15.679688 13.226563 15.566406 L 12.4375 14.25 L 12.75 14.25 C 12.957031 14.25 13.125 14.082031 13.125 13.875 C 13.125 13.667969 12.957031 13.5 12.75 13.5 L 11 13.5 L 12.375 8.726563 C 12.429688 8.519531 12.308594 8.304688 12.101563 8.25 C 11.894531 8.195313 11.679688 8.316406 11.625 8.523438 L 10.273438 13.292969 C 10.210938 13.519531 10.253906 13.765625 10.398438 13.953125 C 10.542969 14.140625 10.761719 14.25 11 14.25 L 11.566406 14.25 L 10.773438 15.566406 C 10.707031 15.679688 10.582031 15.75 10.453125 15.75 L 8.871094 15.75 C 8.574219 15.75 8.289063 15.632813 8.078125 15.421875 L 5.890625 13.234375 C 5.742188 13.105469 5.519531 13.113281 5.382813 13.253906 C 5.242188 13.390625 5.234375 13.613281 5.363281 13.761719 L 7.546875 15.949219 C 7.898438 16.300781 8.375 16.5 8.871094 16.5 L 10.453125 16.5 C 10.847656 16.5 11.210938 16.292969 11.414063 15.953125 L 12 14.976563 L 12.585938 15.953125 C 12.789063 16.292969 13.15625 16.5 13.546875 16.5 L 15.128906 16.5 C 15.625 16.5 16.101563 16.304688 16.453125 15.953125 L 18.640625 13.765625 C 18.769531 13.617188 18.761719 13.394531 18.621094 13.257813 C 18.484375 13.117188 18.261719 13.109375 18.113281 13.238281 Z "/>
</g>
</svg>
